<svg width="66" height="66" viewBox="0 0 66 66" fill="none" xmlns="http://www.w3.org/2000/svg">
<g filter="url(#filter0_d)">
<rect x="5" y="5" width="56" height="56" rx="10" fill="#45607B"/>
</g>
<path d="M26.7346 11.5H34.2908C42.4285 11.5 49.0254 18.0429 49.0254 26.114C49.0254 34.1851 42.4285 40.728 34.2908 40.728H26.7346C25.8777 40.728 25.0393 40.6514 24.2225 40.5122L19.773 42.7043C18.6668 43.2493 17.3934 42.3553 17.5442 41.1394L17.9522 37.8484C14.3404 35.185 12 30.9209 12 26.1141C11.9999 18.043 18.5969 11.5 26.7346 11.5Z" fill="#2A94D6"/>
<path d="M37.3816 31.1147H43.015C49.0818 31.1147 54 35.9927 54 42.0098C54 48.027 49.0819 52.9048 43.015 52.9048H37.3816C36.7428 52.9048 36.1178 52.8477 35.5088 52.7439L32.1916 54.3782C31.3668 54.7845 30.4176 54.118 30.53 53.2115L30.8342 50.758C28.1417 48.7724 26.3968 45.5933 26.3968 42.0098C26.3966 35.9927 31.3148 31.1147 37.3816 31.1147Z" fill="#F3AE4E"/>
<ellipse rx="2.87937" ry="2.8558" transform="matrix(-1 0 0 1 39.5727 26.9073)" fill="url(#paint0_linear)"/>
<ellipse rx="2.87937" ry="2.8558" transform="matrix(-1 0 0 1 31.5502 26.9073)" fill="url(#paint1_linear)"/>
<ellipse rx="2.87937" ry="2.8558" transform="matrix(-1 0 0 1 23.5277 26.9073)" fill="url(#paint2_linear)"/>
<ellipse cx="34.2947" cy="42.8073" rx="2.1189" ry="2.10156" fill="white"/>
<ellipse cx="40.1983" cy="42.8073" rx="2.1189" ry="2.10156" fill="url(#paint3_linear)"/>
<ellipse cx="46.1019" cy="42.8073" rx="2.1189" ry="2.10156" fill="url(#paint4_linear)"/>
<defs>
<filter id="filter0_d" x="0" y="0" width="66" height="66" filterUnits="userSpaceOnUse" color-interpolation-filters="sRGB">
<feFlood flood-opacity="0" result="BackgroundImageFix"/>
<feColorMatrix in="SourceAlpha" type="matrix" values="0 0 0 0 0 0 0 0 0 0 0 0 0 0 0 0 0 0 127 0"/>
<feOffset/>
<feGaussianBlur stdDeviation="2.5"/>
<feColorMatrix type="matrix" values="0 0 0 0 0.788666 0 0 0 0 0.788666 0 0 0 0 0.788666 0 0 0 0.5 0"/>
<feBlend mode="multiply" in2="BackgroundImageFix" result="effect1_dropShadow"/>
<feBlend mode="normal" in="SourceGraphic" in2="effect1_dropShadow" result="shape"/>
</filter>
<linearGradient id="paint0_linear" x1="-0.755894" y1="3.30449" x2="3.29811" y2="7.39184" gradientUnits="userSpaceOnUse">
<stop stop-color="#EEF4FF"/>
<stop offset="1" stop-color="#CFE7FD"/>
</linearGradient>
<linearGradient id="paint1_linear" x1="-0.755785" y1="3.30444" x2="3.29811" y2="7.39179" gradientUnits="userSpaceOnUse">
<stop stop-color="#EEF4FF"/>
<stop offset="1" stop-color="#CFE7FD"/>
</linearGradient>
<linearGradient id="paint2_linear" x1="-0.755785" y1="3.30444" x2="3.29811" y2="7.39179" gradientUnits="userSpaceOnUse">
<stop stop-color="#EEF4FF"/>
<stop offset="1" stop-color="#CFE7FD"/>
</linearGradient>
<linearGradient id="paint3_linear" x1="37.5233" y1="43.1374" x2="40.5064" y2="46.1452" gradientUnits="userSpaceOnUse">
<stop stop-color="#EEF4FF"/>
<stop offset="1" stop-color="#CFE7FD"/>
</linearGradient>
<linearGradient id="paint4_linear" x1="43.4268" y1="43.1375" x2="46.4101" y2="46.1453" gradientUnits="userSpaceOnUse">
<stop stop-color="#EEF4FF"/>
<stop offset="1" stop-color="#CFE7FD"/>
</linearGradient>
</defs>
</svg>
